<svg preserveAspectRatio="none" overflow="visible" style="display: block;" width="101.647" height="84.7059" viewBox="0 0 101.647 84.7059" fill="none" xmlns="http://www.w3.org/2000/svg">
<g id="Group">
<path id="," d="M48 84.7059L1.72853e-06 84.7059L5.31962e-06 43.6286C6.92557e-06 25.2587 9.45857 12.1616 28.3757 4.33736C32.0884 2.80653 36.3315 1.36074 41.105 7.62266e-06L47.8674 13.7775C36.9945 17.4345 30.4089 22.1545 28.1105 27.9376C27.0497 30.489 26.5193 33.5507 26.5193 37.1226L48 37.1226L48 84.7059Z" fill="#CBCBCB" fill-opacity="0.48"/>
<path id=",_2" d="M101.646 84.7059L53.6465 84.7059L53.6465 43.6286C53.6465 25.2587 63.1051 12.1616 82.0222 4.33736C85.7349 2.80653 89.978 1.36074 94.7515 7.62266e-06L101.514 13.7775C90.641 17.4345 84.0553 22.1545 81.757 27.9376C80.6962 30.489 80.1658 33.5507 80.1658 37.1226L101.646 37.1226L101.646 84.7059Z" fill="#CBCBCB" fill-opacity="0.48"/>
</g>
</svg>
